<svg xmlns="http://www.w3.org/2000/svg"  viewBox="0 0 24 24" width="24px" height="24px"><path d="M 5.8730469 2 C 5.5530469 2 5.2524531 2.1521094 5.0644531 2.4121094 L 2.1914062 6.375 C 2.0674063 6.546 2 6.7518906 2 6.9628906 L 2 19 C 2 19.552 2.448 20 3 20 L 7 20 L 7 22 C 7 22.552 7.448 23 8 23 L 9.5859375 23 C 9.8509375 23 10.104969 22.895031 10.292969 22.707031 L 12.707031 20.292969 C 12.894031 20.104969 13.149062 20 13.414062 20 L 16.585938 20 C 16.850938 20 17.104969 19.895031 17.292969 19.707031 L 21.707031 15.292969 C 21.895031 15.105969 22 14.850938 22 14.585938 L 22 3 C 22 2.448 21.552 2 21 2 L 5.8730469 2 z M 6 4 L 20 4 L 20 13 L 17 16 L 12 16 L 9 19 L 9 16 L 6 16 L 6 4 z M 12 7 C 11.448 7 11 7.448 11 8 L 11 11 C 11 11.552 11.448 12 12 12 C 12.552 12 13 11.552 13 11 L 13 8 C 13 7.448 12.552 7 12 7 z M 17 7 C 16.448 7 16 7.448 16 8 L 16 11 C 16 11.552 16.448 12 17 12 C 17.552 12 18 11.552 18 11 L 18 8 C 18 7.448 17.552 7 17 7 z"/></svg>