<?xml version="1.0" encoding="utf-8"?>
<!DOCTYPE svg PUBLIC "-//W3C//DTD SVG 1.1//EN" "http://www.w3.org/Graphics/SVG/1.1/DTD/svg11.dtd">
<svg version="1.1" id="Layer_1" xmlns="http://www.w3.org/2000/svg" xmlns:xlink="http://www.w3.org/1999/xlink" x="0px" y="0px"
	 width="355px" height="165px" viewBox="0 0 355 165" enable-background="new 0 0 355 165" xml:space="preserve">
	<path fill="#FFFFFF" d="M305,60c-0.088-0.01-0.171-0.01-0.259-0.005L304.556,60H305z M304.741,59.995
		c-1.284-0.056-2.534-0.511-3.384-1.36c-0.898-0.905-4.6-3.635-5.449-3.635h-0.454c-1.382,0-2.725-0.889-2.725-2.275
		c0-1.385,1.343-2.725,2.725-2.725H345c1.377,0,2.729-0.459,3.633-1.365l5-5C354.541,42.729,355,41.379,355,40v-5
		c0-1.379-0.459-2.729-1.367-3.635l-5-5C347.729,25.459,346.377,25,345,25h-5c-2.012-0.005-3.516-1.025-5-2.275s-2.988-2.72-5-2.725
		h-5c-2.012-0.005-3.516-1.025-5-2.275s-2.988-2.72-5-2.725s-3.516-1.025-5-2.275s-2.988-2.72-5-2.725s-3.516-1.025-5-2.275
		s-2.988-2.72-5-2.725s-3.516-1.025-5-2.275s-2.988-2.72-5-2.725h-20c-1.377,0-2.729,0.459-3.633,1.365l-10,10
		c-0.908,0.906-9.883,10.11-11.367,11.36s-2.988,2.271-5,2.275h-5h-5c-2.012-0.005-3.516-1.025-5-2.275s-2.988-2.72-5-2.725h-5
		c-2.012-0.005-3.516-1.025-5-2.275s-2.988-2.72-5-2.725s-3.516-1.025-5-2.275s-2.988-2.72-5-2.725s-3.516-1.025-5-2.275
		s-2.988-2.72-5-2.725c-2.01-0.005-3.516-1.025-5-2.275s-2.99-2.72-5-2.725h-20c-1.379,0-2.729,0.459-3.635,1.365l-10,10
		c-0.906,0.906-9.881,10.11-11.365,11.36s-2.99,2.271-5,2.275h-5v0.845L114.81,25H110c-2.01-0.005-3.516-1.025-5-2.275
		s-2.99-2.72-5-2.725h-5c-2.01-0.005-3.516-1.025-5-2.275s-2.99-2.72-5-2.725s-3.516-1.025-5-2.275s-2.99-2.72-5-2.725
		s-3.516-1.025-5-2.275S67.01,5.005,65,5s-3.516-1.025-5-2.275S57.01,0.005,55,0H35c-1.379,0-2.729,0.459-3.635,1.365l-5,5
		C25.459,7.271,25,8.621,25,10v5c-0.005,2.01-1.025,3.516-2.275,5s-2.72,2.99-2.725,5v5c-0.005,2.01-1.025,3.516-2.275,5
		s-2.72,2.99-2.725,5s-1.025,3.516-2.275,5s-2.72,2.99-2.725,5s-1.025,3.516-2.275,5S5.005,57.99,5,60s-1.025,3.516-2.275,5
		S0.005,67.99,0,70v5v5v5v5v5c0.005,2.012,1.475,3.516,2.725,5s2.271,2.988,2.275,5s1.475,3.516,2.725,5s2.271,2.988,2.275,5
		s1.475,3.516,2.725,5s2.271,2.988,2.275,5s1.475,3.516,2.725,5s2.271,2.988,2.275,5v5c0.005,2.012,1.475,3.516,2.725,5
		s2.271,2.988,2.275,5v5c0,1.377,0.459,2.729,1.365,3.633l5,5C32.271,164.541,33.621,165,35,165h20c2.01-0.005,3.516-1.025,5-2.275
		s2.99-2.72,5-2.725s3.516-1.025,5-2.275s2.99-2.72,5-2.725s3.516-1.025,5-2.275s2.99-2.72,5-2.725s3.516-1.025,5-2.275
		s2.99-2.72,5-2.725h5c2.01-0.005,3.516-1.025,5-2.275s2.99-2.72,5-2.725h5h5.806H130c1.006,0,1.914,0.381,2.725,0.908
		c0.815,0.527,1.525,1.196,2.275,1.821s1.46,1.406,2.275,1.821c0.811,0.41,1.719,0.449,2.725,0.449h5
		c2.01,0.005,3.516,1.475,5,2.725s2.99,2.271,5,2.275s3.516,1.475,5,2.725s2.99,2.271,5,2.275s3.516,1.475,5,2.725
		s2.99,2.271,5,2.275s3.516,1.475,5,2.725s2.988,2.271,5,2.275h20c1.377,0,2.729-0.459,3.633-1.367l5-5
		c0.908-0.903,1.367-2.256,1.367-3.633c0.005-2.012,1.475-3.516,2.725-5s2.271-2.988,2.275-5c0-2.764,2.236-5,5-5h20
		c1.006,0,1.914,0.381,2.725,0.908c0.815,0.527,1.523,1.196,2.275,1.821s1.46,1.406,2.275,1.821c0.811,0.41,1.719,0.449,2.725,0.449
		h5c2.012,0.005,3.516,1.475,5,2.725s2.988,2.271,5,2.275s3.516,1.475,5,2.725s2.988,2.271,5,2.275s3.516,1.475,5,2.725
		s2.988,2.271,5,2.275s3.516,1.475,5,2.725s2.988,2.271,5,2.275h20c1.377,0,2.729-0.459,3.633-1.367l5-5
		c0.908-0.903,1.367-2.256,1.367-3.633c0.005-2.012,1.475-3.516,2.725-5s2.271-2.988,2.275-5s1.475-3.516,2.725-5
		s2.271-2.988,2.275-5s1.475-3.516,2.725-5s2.271-2.988,2.275-5s1.475-3.516,2.725-5s2.271-2.988,2.275-5s1.475-3.516,2.725-5
		s2.271-2.988,2.275-5V85c0-1.379-0.459-2.729-1.367-3.635l-5-5C347.729,75.459,346.377,75,345,75h-5
		c-2.012-0.005-3.516-1.025-5-2.275s-2.988-2.72-5-2.725h-5c-2.012-0.005-3.516-1.025-5-2.275s-2.988-2.72-5-2.725
		s-3.516-1.025-5-2.275s-2.988-2.72-5-2.725h-0.444L304.741,59.995z M55,115c-2.766,0-5-2.236-5-5V55c0-2.764,2.234-5,5-5h55
		c1.379,0,2.729,0.459,3.635,1.365l5,5C119.541,57.271,120,58.621,120,60c0.005,2.01,1.475,3.516,2.725,5s4.48,4.375,5,5
		c1.25,1.484,2.271,2.99,2.275,5s1.475,3.516,2.725,5s3.75,3.516,5,5s2.271,2.988,2.275,5c0,1.377,0.459,2.729,1.365,3.633l5,5
		C147.271,99.541,148.621,100,150,100h35c2.764,0,5,2.236,5,5v5c0,2.764-2.236,5-5,5H55z M190,60
		c-0.088-0.01-0.171-0.01-0.259-0.005c-1.284-0.056-2.534-0.511-3.384-1.36c-0.898-0.905-4.6-3.635-5.449-3.635h-0.454
		c-1.38,0-2.725-1.121-2.725-2.5s1.345-2.5,2.725-2.5H225c1.377,0,2.729,0.459,3.633,1.365l5,5C234.541,57.271,235,58.621,235,60
		c0.005,2.01,1.475,3.516,2.725,5s4.482,4.375,5,5c1.25,1.484,2.271,2.99,2.275,5s1.475,3.516,2.725,5s3.75,3.516,5,5
		s2.271,2.988,2.275,5c0,1.377,0.459,2.729,1.367,3.633l5,5C262.271,99.541,263.623,100,265,100h35c2.764,0,5,2.236,5,5v5
		c0,2.764-2.236,5-5,5h-55c-2.764,0-5-2.236-5-5v-5V85c0-1.379-0.459-2.729-1.367-3.635l-5-5C232.729,75.459,231.377,75,230,75h-5
		c-2.012-0.005-3.516-1.025-5-2.275s-2.988-2.72-5-2.725h-5c-2.012-0.005-3.516-1.025-5-2.275s-2.988-2.72-5-2.725
		s-3.516-1.025-5-2.275S192.012,60.005,190,60z"/>
	<g>
		<polygon fill="#A9D9E5" points="275,10 275,40 345,40 345,35 330,35 330,30 315,30 315,25 305,25 305,20 295,20 295,15 285,15 
			285,10 		"/>
		<polygon fill="#A9D9E5" points="240,35 240,40 270,40 270,35 270,30 270,25 270,20 270,15 270,10 265,10 265,15 260,15 260,20 
			255,20 255,25 250,25 250,30 245,30 245,35 		"/>
		<polygon fill="#A9D9E5" points="275,60 275,90 345,90 345,85 330,85 330,80 315,80 315,75 305,75 305,70 295,70 295,65 285,65 
			285,60 		"/>
		<polygon fill="#A9D9E5" points="310,155 310,125 235,125 235,130 255,130 255,135 270,135 270,140 280,140 280,145 290,145 
			290,150 300,150 300,155 		"/>
		<polygon fill="#A9D9E5" points="345,105 345,95 315,95 315,105 315,115 315,125 315,135 315,145 315,155 320,155 320,145 325,145 
			325,135 330,135 330,125 335,125 335,115 340,115 340,105 		"/>
		<polygon fill="#A9D9E5" points="240,45 240,50 245,50 245,60 250,60 250,65 255,65 255,75 260,75 260,80 265,80 265,90 270,90 
			270,45 		"/>
	</g>
	<g>
		<polygon fill="#289EBF" points="10,80 40,80 40,10 35,10 35,25 30,25 30,40 25,40 25,50 20,50 20,60 15,60 15,70 10,70 		"/>
		<polygon fill="#289EBF" points="45,10 45,40 115,40 115,35 100,35 100,30 85,30 85,25 75,25 75,20 65,20 65,15 55,15 55,10 		"/>
		<polygon fill="#289EBF" points="10,85 40,85 40,155 35,155 35,140 30,140 30,125 25,125 25,115 20,115 20,105 15,105 15,95 10,95 
					"/>
		<polygon fill="#289EBF" points="45,155 45,125 115,125 115,130 100,130 100,135 85,135 85,140 75,140 75,145 65,145 65,150 
			55,150 55,155 		"/>
	</g>
	<g>
		<polygon fill="#53B2CC" points="160,10 160,40 230,40 230,35 215,35 215,30 200,30 200,25 190,25 190,20 180,20 180,15 170,15 
			170,10 		"/>
		<polygon fill="#53B2CC" points="125,35 125,40 155,40 155,35 155,30 155,25 155,20 155,15 155,10 150,10 150,15 145,15 145,20 
			140,20 140,25 135,25 135,30 130,30 130,35 		"/>
		<polygon fill="#53B2CC" points="160,60 160,90 230,90 230,85 215,85 215,80 200,80 200,75 190,75 190,70 180,70 180,65 170,65 
			170,60 		"/>
		<polygon fill="#53B2CC" points="195,155 195,125 125,125 125,130 140,130 140,135 155,135 155,140 165,140 165,145 175,145 
			175,150 185,150 185,155 		"/>
		<polygon fill="#53B2CC" points="125,45 125,50 130,50 130,60 135,60 135,65 140,65 140,75 145,75 145,80 150,80 150,90 155,90 
			155,45 		"/>
		<polygon fill="#53B2CC" points="230,105 230,95 200,95 200,105 200,115 200,125 200,135 200,145 200,155 205,155 205,145 210,145 
			210,135 215,135 215,125 220,125 220,115 225,115 225,105 		"/>
	</g>
</svg>