<?xml version="1.0" encoding="utf-8"?>
<!-- Generator: Adobe Illustrator 16.0.0, SVG Export Plug-In . SVG Version: 6.00 Build 0)  -->
<!DOCTYPE svg PUBLIC "-//W3C//DTD SVG 1.1//EN" "http://www.w3.org/Graphics/SVG/1.1/DTD/svg11.dtd">
<svg version="1.1" id="Layer_1" xmlns="http://www.w3.org/2000/svg" xmlns:xlink="http://www.w3.org/1999/xlink" x="0px" y="0px"
	 width="71px" height="33px" viewBox="0 0 71 33" enable-background="new 0 0 71 33" xml:space="preserve">
<g>
	<path fill="#FFFFFF" d="M61,12c-0.018-0.002-0.034-0.002-0.052-0.001L60.911,12H61z M60.948,11.999
		c-0.257-0.011-0.507-0.102-0.677-0.272c-0.18-0.181-0.92-0.727-1.09-0.727h-0.091c-0.276,0-0.545-0.178-0.545-0.455
		c0-0.277,0.269-0.545,0.545-0.545H69c0.275,0,0.546-0.092,0.727-0.273l1-1C70.908,8.546,71,8.276,71,8V7
		c0-0.276-0.092-0.546-0.273-0.727l-1-1C69.546,5.092,69.275,5,69,5h-1c-0.402-0.001-0.703-0.205-1-0.455S66.402,4.001,66,4h-1
		c-0.402-0.001-0.703-0.205-1-0.455S63.402,3.001,63,3s-0.703-0.205-1-0.455S61.402,2.001,61,2s-0.703-0.205-1-0.455
		S59.402,1.001,59,1s-0.703-0.205-1-0.455S57.402,0.001,57,0h-4c-0.275,0-0.546,0.092-0.727,0.273l-2,2
		C50.092,2.454,48.297,4.295,48,4.545S47.402,4.999,47,5h-2c-0.402-0.001-0.703-0.205-1-0.455S43.402,4.001,43,4h-1
		c-0.402-0.001-0.703-0.205-1-0.455S40.402,3.001,40,3s-0.703-0.205-1-0.455S38.402,2.001,38,2s-0.703-0.205-1-0.455
		S36.402,1.001,36,1c-0.402-0.001-0.703-0.205-1-0.455S34.402,0.001,34,0h-4c-0.276,0-0.546,0.092-0.727,0.273l-2,2
		C27.092,2.454,25.297,4.295,25,4.545S24.402,4.999,24,5h-2c-0.402-0.001-0.703-0.205-1-0.455S20.402,4.001,20,4h-1
		c-0.402-0.001-0.703-0.205-1-0.455S17.402,3.001,17,3s-0.703-0.205-1-0.455S15.402,2.001,15,2s-0.703-0.205-1-0.455
		S13.402,1.001,13,1s-0.703-0.205-1-0.455S11.402,0.001,11,0H7C6.724,0,6.454,0.092,6.273,0.273l-1,1C5.092,1.454,5,1.724,5,2v1
		C4.999,3.402,4.795,3.703,4.545,4S4.001,4.598,4,5v1C3.999,6.402,3.795,6.703,3.545,7S3.001,7.598,3,8S2.795,8.703,2.545,9
		S2.001,9.598,2,10s-0.205,0.703-0.455,1S1.001,11.598,1,12s-0.205,0.703-0.455,1S0.001,13.598,0,14v1v1v1v1v1
		c0.001,0.402,0.295,0.703,0.545,1S0.999,20.598,1,21s0.295,0.703,0.545,1S1.999,22.598,2,23s0.295,0.703,0.545,1S2.999,24.598,3,25
		s0.295,0.703,0.545,1S3.999,26.598,4,27v1c0.001,0.402,0.295,0.703,0.545,1S4.999,29.598,5,30v1c0,0.275,0.092,0.546,0.273,0.727
		l1,1C6.454,32.908,6.724,33,7,33h4c0.402-0.001,0.703-0.205,1-0.455s0.598-0.544,1-0.545s0.703-0.205,1-0.455s0.598-0.544,1-0.545
		s0.703-0.205,1-0.455s0.598-0.544,1-0.545s0.703-0.205,1-0.455s0.598-0.544,1-0.545h1c0.402-0.001,0.703-0.205,1-0.455
		s0.598-0.544,1-0.545h1h1.161H26c0.201,0,0.383,0.076,0.545,0.182c0.163,0.105,0.305,0.239,0.455,0.364s0.292,0.281,0.455,0.364
		C27.617,28.992,27.799,29,28,29h1c0.402,0.001,0.703,0.295,1,0.545s0.598,0.454,1,0.455s0.703,0.295,1,0.545s0.598,0.454,1,0.455
		s0.703,0.295,1,0.545s0.598,0.454,1,0.455s0.703,0.295,1,0.545s0.598,0.454,1,0.455h4c0.275,0,0.546-0.092,0.727-0.273l1-1
		C42.908,31.546,43,31.275,43,31c0.001-0.402,0.295-0.703,0.545-1s0.454-0.598,0.455-1c0-0.553,0.447-1,1-1h4
		c0.201,0,0.383,0.076,0.545,0.182c0.163,0.105,0.305,0.239,0.455,0.364s0.292,0.281,0.455,0.364C50.617,28.992,50.799,29,51,29h1
		c0.402,0.001,0.703,0.295,1,0.545s0.598,0.454,1,0.455s0.703,0.295,1,0.545s0.598,0.454,1,0.455s0.703,0.295,1,0.545
		s0.598,0.454,1,0.455s0.703,0.295,1,0.545s0.598,0.454,1,0.455h4c0.275,0,0.546-0.092,0.727-0.273l1-1
		C65.908,31.546,66,31.275,66,31c0.001-0.402,0.295-0.703,0.545-1s0.454-0.598,0.455-1s0.295-0.703,0.545-1s0.454-0.598,0.455-1
		s0.295-0.703,0.545-1s0.454-0.598,0.455-1s0.295-0.703,0.545-1s0.454-0.598,0.455-1s0.295-0.703,0.545-1s0.454-0.598,0.455-1v-4
		c0-0.276-0.092-0.546-0.273-0.727l-1-1C69.546,15.092,69.275,15,69,15h-1c-0.402-0.001-0.703-0.205-1-0.455S66.402,14.001,66,14h-1
		c-0.402-0.001-0.703-0.205-1-0.455S63.402,13.001,63,13s-0.703-0.205-1-0.455S61.402,12.001,61,12h-0.089L60.948,11.999z M11,23
		c-0.553,0-1-0.447-1-1V11c0-0.553,0.447-1,1-1h11c0.276,0,0.546,0.092,0.727,0.273l1,1C23.908,11.454,24,11.724,24,12
		c0.001,0.402,0.295,0.703,0.545,1s0.896,0.875,1,1c0.25,0.297,0.454,0.598,0.455,1s0.295,0.703,0.545,1s0.75,0.703,1,1
		s0.454,0.598,0.455,1c0,0.275,0.092,0.546,0.273,0.727l1,1C29.454,19.908,29.724,20,30,20h7c0.553,0,1,0.447,1,1v1
		c0,0.553-0.447,1-1,1H11z M38,12c-0.018-0.002-0.034-0.002-0.052-0.001c-0.257-0.011-0.507-0.102-0.677-0.272
		c-0.18-0.181-0.92-0.727-1.09-0.727h-0.091c-0.276,0-0.545-0.224-0.545-0.5s0.269-0.5,0.545-0.5H45
		c0.275,0,0.546,0.092,0.727,0.273l1,1C46.908,11.454,47,11.724,47,12c0.001,0.402,0.295,0.703,0.545,1s0.896,0.875,1,1
		c0.25,0.297,0.454,0.598,0.455,1s0.295,0.703,0.545,1s0.75,0.703,1,1s0.454,0.598,0.455,1c0,0.275,0.092,0.546,0.273,0.727l1,1
		C52.454,19.908,52.725,20,53,20h7c0.553,0,1,0.447,1,1v1c0,0.553-0.447,1-1,1H49c-0.553,0-1-0.447-1-1v-1v-4
		c0-0.276-0.092-0.546-0.273-0.727l-1-1C46.546,15.092,46.275,15,46,15h-1c-0.402-0.001-0.703-0.205-1-0.455S43.402,14.001,43,14h-1
		c-0.402-0.001-0.703-0.205-1-0.455S40.402,13.001,40,13s-0.703-0.205-1-0.455S38.402,12.001,38,12z"/>
	<g>
		<polygon fill="#A9D9E5" points="55,2 55,8 69,8 69,7 66,7 66,6 63,6 63,5 61,5 61,4 59,4 59,3 57,3 57,2 		"/>
		<polygon fill="#A9D9E5" points="48,7 48,8 54,8 54,7 54,6 54,5 54,4 54,3 54,2 53,2 53,3 52,3 52,4 51,4 51,5 50,5 50,6 49,6 
			49,7 		"/>
		<polygon fill="#A9D9E5" points="55,12 55,18 69,18 69,17 66,17 66,16 63,16 63,15 61,15 61,14 59,14 59,13 57,13 57,12 		"/>
		<polygon fill="#A9D9E5" points="62,31 62,25 47,25 47,26 51,26 51,27 54,27 54,28 56,28 56,29 58,29 58,30 60,30 60,31 		"/>
		<polygon fill="#A9D9E5" points="69,21 69,19 63,19 63,31 64,31 64,29 65,29 65,27 66,27 66,25 67,25 67,23 68,23 68,21 		"/>
		<polygon fill="#A9D9E5" points="48,9 48,10 49,10 49,12 50,12 50,13 51,13 51,15 52,15 52,16 53,16 53,18 54,18 54,9 		"/>
	</g>
	<g>
		<polygon fill="#289EBF" points="2,16 8,16 8,2 7,2 7,5 6,5 6,8 5,8 5,10 4,10 4,12 3,12 3,14 2,14 		"/>
		<polygon fill="#289EBF" points="9,2 9,8 23,8 23,7 20,7 20,6 17,6 17,5 15,5 15,4 13,4 13,3 11,3 11,2 		"/>
		<polygon fill="#289EBF" points="2,17 8,17 8,31 7,31 7,28 6,28 6,25 5,25 5,23 4,23 4,21 3,21 3,19 2,19 		"/>
		<polygon fill="#289EBF" points="9,31 9,25 23,25 23,26 20,26 20,27 17,27 17,28 15,28 15,29 13,29 13,30 11,30 11,31 		"/>
	</g>
	<g>
		<polygon fill="#53B2CC" points="32,2 32,8 46,8 46,7 43,7 43,6 40,6 40,5 38,5 38,4 36,4 36,3 34,3 34,2 		"/>
		<polygon fill="#53B2CC" points="25,7 25,8 31,8 31,7 31,6 31,5 31,4 31,3 31,2 30,2 30,3 29,3 29,4 28,4 28,5 27,5 27,6 26,6 
			26,7 		"/>
		<polygon fill="#53B2CC" points="32,12 32,18 46,18 46,17 43,17 43,16 40,16 40,15 38,15 38,14 36,14 36,13 34,13 34,12 		"/>
		<polygon fill="#53B2CC" points="39,31 39,25 25,25 25,26 28,26 28,27 31,27 31,28 33,28 33,29 35,29 35,30 37,30 37,31 		"/>
		<polygon fill="#53B2CC" points="25,9 25,10 26,10 26,12 27,12 27,13 28,13 28,15 29,15 29,16 30,16 30,18 31,18 31,9 		"/>
		<polygon fill="#53B2CC" points="46,21 46,19 40,19 40,31 41,31 41,29 42,29 42,27 43,27 43,25 44,25 44,23 45,23 45,21 		"/>
	</g>
</g>
</svg>
