<?xml version="1.0" encoding="utf-8"?>
<!-- Generator: Adobe Illustrator 16.0.0, SVG Export Plug-In . SVG Version: 6.00 Build 0)  -->
<!DOCTYPE svg PUBLIC "-//W3C//DTD SVG 1.1//EN" "http://www.w3.org/Graphics/SVG/1.1/DTD/svg11.dtd">
<svg version="1.1" id="Layer_1" xmlns="http://www.w3.org/2000/svg" xmlns:xlink="http://www.w3.org/1999/xlink" x="0px" y="0px"
	 width="781px" height="363px" viewBox="0 0 781 363" enable-background="new 0 0 781 363" xml:space="preserve">
<g>
	<path fill="#FFFFFF" d="M671,132c-0.19-0.02-0.381-0.02-0.57-0.01l-0.41,0.01H671z M670.43,131.99c-2.83-0.12-5.561-1.12-7.43-2.99
		c-1.99-1.99-10.141-8-12-8h-1c-3.04,0-6-1.96-6-5s2.96-6,6-6h109c3.039,0,6.01-1.01,8-3l11-11c1.989-1.99,3-4.96,3-8V77
		c0-3.04-1.011-6.01-3-8l-11-11c-1.99-1.99-4.961-3-8-3h-11c-4.421-0.01-7.73-2.25-11-5c-3.271-2.75-6.58-5.99-11-6h-11
		c-4.421-0.01-7.73-2.25-11-5c-3.271-2.75-6.58-5.99-11-6c-4.421-0.01-7.73-2.25-11-5c-3.271-2.75-6.58-5.99-11-6
		c-4.421-0.01-7.73-2.25-11-5c-3.271-2.75-6.58-5.99-11-6c-4.421-0.01-7.73-2.25-11-5c-3.271-2.75-6.58-5.99-11-6h-44
		c-3.04,0-6.011,1.01-8,3l-22,22c-1.99,1.99-21.73,22.25-25,25c-3.271,2.75-6.58,4.99-11,5h-22c-4.421-0.01-7.73-2.25-11-5
		c-3.271-2.75-6.58-5.99-11-6h-11c-4.421-0.01-7.73-2.25-11-5c-3.271-2.75-6.58-5.99-11-6c-4.421-0.01-7.73-2.25-11-5
		c-3.271-2.75-6.58-5.99-11-6c-4.421-0.01-7.73-2.25-11-5c-3.271-2.75-6.58-5.99-11-6c-4.421-0.01-7.73-2.25-11-5
		c-3.271-2.75-6.58-5.99-11-6h-44c-3.04,0-6.011,1.01-8,3l-22,22c-1.99,1.99-21.73,22.25-25,25c-3.271,2.75-6.58,4.99-11,5h-22
		c-4.42-0.01-7.73-2.25-11-5c-3.271-2.75-6.58-5.99-11-6h-11c-4.42-0.01-7.73-2.25-11-5c-3.271-2.75-6.58-5.99-11-6s-7.73-2.25-11-5
		c-3.271-2.75-6.58-5.99-11-6s-7.73-2.25-11-5c-3.271-2.75-6.58-5.99-11-6s-7.73-2.25-11-5c-3.271-2.75-6.58-5.99-11-6H77
		c-3.04,0-6.01,1.01-8,3L58,14c-1.99,1.99-3,4.96-3,8v11c-0.01,4.42-2.25,7.73-5,11s-5.99,6.58-6,11v11c-0.01,4.42-2.25,7.73-5,11
		s-5.99,6.58-6,11s-2.25,7.73-5,11s-5.99,6.58-6,11s-2.25,7.73-5,11s-5.99,6.58-6,11s-2.25,7.73-5,11s-5.99,6.58-6,11v11v11v11v11
		v11c0.01,4.42,3.25,7.73,6,11s4.99,6.58,5,11s3.25,7.73,6,11s4.99,6.58,5,11s3.25,7.73,6,11s4.99,6.58,5,11s3.25,7.73,6,11
		s4.99,6.58,5,11v11c0.01,4.42,3.25,7.73,6,11s4.99,6.58,5,11v11c0,3.04,1.01,6.01,3,8l11,11c1.99,1.99,4.96,3,8,3h44
		c4.42-0.01,7.729-2.25,11-5c3.27-2.75,6.58-5.99,11-6s7.729-2.25,11-5c3.27-2.75,6.58-5.99,11-6s7.729-2.25,11-5
		c3.27-2.75,6.58-5.99,11-6s7.729-2.25,11-5c3.27-2.75,6.58-5.99,11-6h11c4.42-0.01,7.729-2.25,11-5c3.27-2.75,6.58-5.99,11-6h11
		h12.77H286c2.21,0,4.21,0.84,6,2s3.359,2.63,5,4c1.64,1.37,3.21,3.09,5,4s3.79,1,6,1h11c4.42,0.01,7.729,3.25,11,6
		c3.27,2.75,6.579,4.99,11,5c4.42,0.01,7.729,3.25,11,6c3.27,2.75,6.579,4.99,11,5c4.42,0.01,7.729,3.25,11,6
		c3.27,2.75,6.579,4.99,11,5c4.42,0.01,7.729,3.25,11,6c3.27,2.75,6.579,4.99,11,5h44c3.039,0,6.01-1.01,8-3l11-11
		c1.989-1.99,3-4.96,3-8c0.01-4.42,3.25-7.73,6-11s4.989-6.58,5-11c0-6.08,4.92-11,11-11h44c2.21,0,4.21,0.84,6,2
		c1.789,1.16,3.359,2.63,5,4c1.64,1.37,3.21,3.09,5,4c1.789,0.91,3.789,1,6,1h11c4.42,0.01,7.729,3.25,11,6
		c3.27,2.75,6.579,4.99,11,5c4.42,0.01,7.729,3.25,11,6c3.27,2.75,6.579,4.99,11,5c4.42,0.01,7.729,3.25,11,6
		c3.27,2.75,6.579,4.99,11,5c4.42,0.01,7.729,3.25,11,6c3.27,2.75,6.579,4.99,11,5h44c3.039,0,6.01-1.01,8-3l11-11
		c1.989-1.99,3-4.96,3-8c0.01-4.42,3.25-7.73,6-11s4.989-6.58,5-11c0.01-4.42,3.25-7.73,6-11s4.989-6.58,5-11
		c0.01-4.42,3.25-7.73,6-11s4.989-6.58,5-11c0.01-4.42,3.25-7.73,6-11s4.989-6.58,5-11c0.01-4.42,3.25-7.73,6-11s4.989-6.58,5-11
		v-44c0-3.04-1.011-6.01-3-8l-11-11c-1.99-1.99-4.961-3-8-3h-11c-4.421-0.01-7.73-2.25-11-5c-3.271-2.75-6.58-5.99-11-6h-11
		c-4.421-0.01-7.73-2.25-11-5c-3.271-2.75-6.58-5.99-11-6c-4.421-0.01-7.73-2.25-11-5c-3.271-2.75-6.58-5.99-11-6h-0.98
		L670.43,131.99z M121,253c-6.08,0-11-4.92-11-11V121c0-6.08,4.92-11,11-11h121c3.04,0,6.01,1.01,8,3l11,11c1.989,1.99,3,4.96,3,8
		c0.01,4.42,3.25,7.73,6,11s9.85,9.63,11,11c2.75,3.27,4.989,6.58,5,11c0.01,4.42,3.25,7.73,6,11s8.25,7.73,11,11s4.989,6.58,5,11
		c0,3.04,1.01,6.01,3,8l11,11c1.989,1.99,4.96,3,8,3h77c6.079,0,11,4.92,11,11v11c0,6.08-4.921,11-11,11H121z M418,132
		c-0.19-0.02-0.381-0.02-0.57-0.01c-2.83-0.12-5.561-1.12-7.43-2.99c-1.99-1.99-10.141-8-12-8h-1c-3.04,0-6-2.46-6-5.5
		s2.96-5.5,6-5.5h98c3.039,0,6.01,1.01,8,3l11,11c1.989,1.99,3,4.96,3,8c0.01,4.42,3.25,7.73,6,11s9.85,9.63,11,11
		c2.75,3.27,4.989,6.58,5,11c0.01,4.42,3.25,7.73,6,11s8.25,7.73,11,11s4.989,6.58,5,11c0,3.04,1.01,6.01,3,8l11,11
		c1.989,1.99,4.96,3,8,3h77c6.079,0,11,4.92,11,11v11c0,6.08-4.921,11-11,11H539c-6.08,0-11-4.92-11-11v-11v-44
		c0-3.04-1.011-6.01-3-8l-11-11c-1.99-1.99-4.961-3-8-3h-11c-4.421-0.01-7.73-2.25-11-5c-3.271-2.75-6.58-5.99-11-6h-11
		c-4.421-0.01-7.73-2.25-11-5c-3.271-2.75-6.58-5.99-11-6c-4.421-0.01-7.73-2.25-11-5C425.73,135.25,422.42,132.01,418,132z"/>
	<g>
		<polygon fill="#A9D9E5" points="605,22 605,88 759,88 759,77 726,77 726,66 693,66 693,55 671,55 671,44 649,44 649,33 627,33 
			627,22 		"/>
		<polygon fill="#A9D9E5" points="528,77 528,88 594,88 594,77 594,66 594,55 594,44 594,33 594,22 583,22 583,33 572,33 572,44 
			561,44 561,55 550,55 550,66 539,66 539,77 		"/>
		<polygon fill="#A9D9E5" points="605,132 605,198 759,198 759,187 726,187 726,176 693,176 693,165 671,165 671,154 649,154 
			649,143 627,143 627,132 		"/>
		<polygon fill="#A9D9E5" points="682,341 682,275 517,275 517,286 561,286 561,297 594,297 594,308 616,308 616,319 638,319 
			638,330 660,330 660,341 		"/>
		<polygon fill="#A9D9E5" points="759,231 759,209 693,209 693,341 704,341 704,319 715,319 715,297 726,297 726,275 737,275 
			737,253 748,253 748,231 		"/>
		<polygon fill="#A9D9E5" points="528,99 528,110 539,110 539,132 550,132 550,143 561,143 561,165 572,165 572,176 583,176 
			583,198 594,198 594,99 		"/>
	</g>
	<g>
		<polygon fill="#289EBF" points="22,176 88,176 88,22 77,22 77,55 66,55 66,88 55,88 55,110 44,110 44,132 33,132 33,154 22,154 		
			"/>
		<polygon fill="#289EBF" points="99,22 99,88 253,88 253,77 220,77 220,66 187,66 187,55 165,55 165,44 143,44 143,33 121,33 
			121,22 		"/>
		<polygon fill="#289EBF" points="22,187 88,187 88,341 77,341 77,308 66,308 66,275 55,275 55,253 44,253 44,231 33,231 33,209 
			22,209 		"/>
		<polygon fill="#289EBF" points="99,341 99,275 253,275 253,286 220,286 220,297 187,297 187,308 165,308 165,319 143,319 143,330 
			121,330 121,341 		"/>
	</g>
	<g>
		<polygon fill="#53B2CC" points="352,22 352,88 506,88 506,77 473,77 473,66 440,66 440,55 418,55 418,44 396,44 396,33 374,33 
			374,22 		"/>
		<polygon fill="#53B2CC" points="275,77 275,88 341,88 341,77 341,66 341,55 341,44 341,33 341,22 330,22 330,33 319,33 319,44 
			308,44 308,55 297,55 297,66 286,66 286,77 		"/>
		<polygon fill="#53B2CC" points="352,132 352,198 506,198 506,187 473,187 473,176 440,176 440,165 418,165 418,154 396,154 
			396,143 374,143 374,132 		"/>
		<polygon fill="#53B2CC" points="429,341 429,275 275,275 275,286 308,286 308,297 341,297 341,308 363,308 363,319 385,319 
			385,330 407,330 407,341 		"/>
		<polygon fill="#53B2CC" points="275,99 275,110 286,110 286,132 297,132 297,143 308,143 308,165 319,165 319,176 330,176 
			330,198 341,198 341,99 		"/>
		<polygon fill="#53B2CC" points="506,231 506,209 440,209 440,341 451,341 451,319 462,319 462,297 473,297 473,275 484,275 
			484,253 495,253 495,231 		"/>
	</g>
</g>
</svg>
