<svg version="1" xmlns="http://www.w3.org/2000/svg" width="933.333" height="933.333" viewBox="0 0 700.000000 700.000000"><path d="M84.4 197.8c-1.1.2-5.1 3.4-8.8 7.1l-6.8 6.9-.4 8.7c-.3 8.5-.4 8.8-4.6 14.3-4.1 5.3-4.3 5.9-4.8 14.3-.5 8.2-.8 8.9-4.3 13.2-2.2 2.7-4.1 6.4-4.7 9.3-.7 2.9-2.7 6.9-5 9.9-2.4 3.1-4.2 6.7-4.6 9.1-.3 2.3-2.2 6-4.5 9-2.2 2.9-4.1 6.5-4.3 8-.6 4.3-2.2 8-4.5 10.1-4.6 4.3-4.9 6.1-5 32.4l-.1 24.8 4.4 6.4c2.5 3.6 4.7 8.2 5 10.2.4 2.1 2 5.5 3.6 7.5 3.3 4.1 6 9.9 6 12.6 0 1 1.8 4 3.9 6.8 2.2 2.8 4.4 7.1 5 9.4.5 2.4 2.8 7 5 10.2 3.9 5.5 4.1 6.2 4.1 13.3 0 6.9.2 7.7 3.3 11.8 5.3 6.9 5.9 8.6 6.1 17.1l.3 7.9 7 7.1 7.1 7.1h22.1c21.3.1 22.2 0 25.1-2.2 7.2-5.3 10.1-6.9 13.8-7.4 2.1-.4 5.2-1.8 6.8-3.2 3.9-3.5 7.1-5.1 11.7-5.9 2-.4 5.2-2 7-3.5 4-3.5 6.3-4.7 10.7-5.5 2-.3 6-2.4 8.9-4.6 2.9-2.2 5.8-4 6.5-4.1.6-.1 4.2-.2 8-.4 5.5-.3 7.6-.9 10.8-3.2 9.5-6.6 7.5-6.2 29.2-6.1 21.9 0 23.3.3 29.3 6 3 2.9 3.7 3.1 11.5 3.2 8.1.1 8.6.3 13.7 4 2.8 2.1 7.5 4.5 10.4 5.4 2.9.8 6.8 2.7 8.7 4.2 4.8 3.7 7.4 5 10.4 5 1.3 0 4.4 1.5 6.9 3.4 5.9 4.5 8.1 5.6 11.1 5.6 1.3 0 4.4 1.5 6.9 3.4 2.4 1.9 5.5 4 6.8 4.6 2.8 1.5 42.3 2.1 45.4.7 1.1-.5 4.7-3.7 8.1-7.1 4.7-4.8 6.2-7 6.7-10.2.4-2.3 2.3-6.2 4.6-9.2 2.5-3.4 4.1-6.8 4.5-9.7.5-3.1 1.5-5.1 3.6-6.9 2.9-2.4 3.1-2.4 24-2.4h21.1l6 4.5c5.8 4.4 6.2 4.5 13.9 4.8 8.2.2 8.4.3 17.6 7 1.2.9 3.6 1.8 5.5 2 1.8.2 5.9 2.2 9.1 4.5 3.2 2.2 7.2 4.3 9 4.7 4.2.7 6 1.7 11.5 5.9 2.5 1.9 5.6 3.4 7.1 3.4 2.7 0 8.2 2.8 10.9 5.6 3.4 3.3 5.9 3.7 25.8 3.8 11 .1 21.2-.2 22.6-.7 4.1-1.3 14.7-12.7 15.4-16.6.7-4 2-6.6 5.1-10.4 1.3-1.6 3.1-5.2 3.9-8.2.9-2.9 3.1-7.4 5-9.8 1.9-2.5 3.9-6.4 4.4-8.7.5-2.3 2.2-6 3.8-8.2 4.3-6.3 5.3-8.1 5.3-10.4 0-1.2 1.6-4.6 3.6-7.5 4.8-7.2 5.5-8.6 6.1-12.2.3-1.7 2.3-5.5 4.6-8.5l4.2-5.5.3-20.5c.1-12.2-.2-21.7-.8-23.6-.5-1.7-3.7-5.7-7.1-9l-6-5.9-7.2-.4c-10.1-.6-10.8-.8-16.8-5.3-5.1-3.8-5.7-4-12.4-4-7.3 0-9.4-.8-17.3-6.3-2.2-1.6-5.4-3-7.1-3.2-3-.4-7.4-2.9-11.4-6.6-1-.9-3.6-2-5.9-2.3-2.4-.4-6.5-2.4-10.3-5.1-3.4-2.5-7.1-4.5-8.2-4.5-3.7 0-5.4-3.7-3.3-7 .8-1.3 7.9-1.6 50.5-2l49.5-.5 6.6-6.6c6.6-6.6 6.7-6.8 7.1-12.9.7-9.6-.1-11.8-6.7-18.7-6.5-6.8-7.1-7.1-17.7-7.7-4.6-.2-8.1-.9-9.5-2-9.5-6.9-10-7.1-16.7-7.2-3.6-.1-7.1-.2-7.7-.3-.6 0-3.5-1.9-6.4-4.1-3.1-2.3-7.1-4.3-9.3-4.7-2.2-.3-6.1-2.2-9-4.5-2.9-2.1-6.1-4-7.2-4.3-1.1-.2-3.1-.6-4.5-.9-1.4-.3-4.8-2.3-7.7-4.4-2.9-2.2-6.8-4.2-9-4.5-2.2-.4-6.1-2.4-9.2-4.7-2.9-2.2-6-4.1-7-4.1-10.4-.8-40-.3-42.1.7-1.4.7-12 10.6-23.6 22.2-11.7 11.5-22.5 21.4-24 21.9-1.6.6-8 1-14.1 1-12.1.1-12 .1-22-7.3-1.5-1-4.7-1.7-9.5-1.9-7-.2-12.8-2.1-14.3-4.5-1-1.6-8.2-5-10.6-5-1.2 0-4.6-1.8-7.5-4-3.2-2.4-7.2-4.4-10.2-5-2.6-.6-5.9-2.1-7.3-3.3-3.9-3.6-7.2-5.4-11.3-6.1-2.1-.4-6.3-2.6-9.3-4.9l-5.5-4.1-19.6-.1c-10.9 0-20.8.1-22.2.4-1.6.3-10.4 8.3-24.3 22-11.9 11.9-23 22.1-24.5 22.8-1.7.7-7.5 1.1-14.8 1l-12.1-.2-5.6-4.3c-5.4-4.2-5.9-4.4-13.6-4.7-5.6-.1-8.8-.7-10.3-1.9-7.2-5.2-11.5-7.6-13.9-7.6-1.6 0-4.6-1.5-7.6-3.8-2.7-2.2-6.9-4.4-9.8-5.1-2.7-.7-6.6-2.5-8.5-4-4.6-3.6-6.7-4.7-11-5.5-2-.3-6-2.4-8.9-4.6-2.9-2.2-5.8-4.1-6.5-4.1-2.6-.3-39.3-.4-41.2-.1zM236.5 297c4.8 4.8 6.6 7.4 7.1 10 1 6.1 1.2 6.4 9.2 14.8 6.8 7 8.1 8.9 9.5 14.1 1.4 5 2.7 7.1 7.9 12.3 8.1 8.2 10.8 12.3 10.8 16.4 0 2.8 1.1 4.5 6.9 10.4 5.7 5.9 7.4 7 10.2 7.1 1.9 0 18 .1 35.9.2 34.8.2 36.2.4 38 5.3.6 1.4 1 5.7 1 9.5 0 6.5-.2 7.3-2.9 10l-2.9 2.9H244.6c-85 0-123.2-.3-124.9-1.1-5.2-2.4-5.1-1.5-5.2-57.9-.1-28.9.3-53.6.7-55 .5-1.4 2.1-3.3 3.6-4.3 2.5-1.5 7.3-1.7 56.9-1.4l54.2.2 6.6 6.5zm208.7-3.3c9.6 8.7 10.8 10.5 11.7 18.5.1.3 3.9 4.8 8.6 9.8 6.4 7 8.6 10.1 9 12.9.9 5.4 2 7 10 15.3 5.7 5.9 7.5 8.5 8 11.5 1.1 6.6 1.5 7.1 8.3 13.8 5.6 5.4 7.3 6.5 10.2 6.5 1.9.1 18.2.2 36.2.3l32.8.2 2.6 2.6c2.4 2.4 2.7 3.5 2.8 10.2.1 8.2-1.2 11.8-5.1 13.6-3.1 1.4-106 1.6-109.8.1-4.3-1.6-4.8-4.7-5.1-30-.1-12.9-.2-24.7-.3-26.1-.1-2.8-10.8-14.4-14.6-15.9-1.1-.4-5-.8-8.6-.9-7.2-.1-9.3-.9-15.6-5.9-3.8-2.9-4.7-3.2-11.3-3.2-7.6 0-9.2-.5-15.7-5.5-2.3-1.8-6-3.5-8.2-3.9-2.3-.3-6.1-2.3-9.2-4.6-2.9-2.2-5.8-4-6.4-4.1-4.7-.3-8.4-2-11.7-5.2-1.8-1.8-7.3-4.7-8.9-4.7-2.1 0-4.8-3.1-4.2-4.8 1.5-4.3.7-4.2 46.4-4.2H441l4.2 3.7z"/></svg>