<svg xmlns="http://www.w3.org/2000/svg" xml:space="preserve" fill-rule="evenodd" stroke-linejoin="round" stroke-miterlimit="2" clip-rule="evenodd" viewBox="0 0 1000 1000"><path fill="none" d="M0 0h1000v1000H0z"/><path fill="#ec5042" fill-rule="nonzero" d="M483 945H333c-63 0-113-17-147-53-35-35-53-84-53-147V315c0-64 18-113 53-148 34-35 84-52 147-52h150c63 0 112 17 148 52 35 35 52 84 52 148v62c0 16-7 23-23 23h-81c-15 0-22-7-22-23v-57c0-63-31-95-93-95H352c-62 0-93 32-93 95v420c0 64 31 96 93 96h112c62 0 93-32 93-96v-57c0-15 7-23 22-23h81c16 0 23 8 23 23v62c0 63-17 112-52 147-36 36-85 53-148 53Z"/><path fill="#d14537" fill-rule="nonzero" d="M622 734v-16c0-7 4-11 11-11h40c7 0 10 4 10 11v11c0 18 4 30 12 38s20 12 38 12h43c18 0 31-4 39-12 8-9 12-22 12-40v-15c0-13-5-23-15-31s-23-13-38-15a659 659 0 0 1-99-24c-15-6-27-16-37-31-11-15-16-34-16-58v-26c0-30 9-54 26-71 18-18 42-26 72-26h66c31 0 55 9 72 26 18 17 26 41 26 72v13c0 7-3 11-10 11h-40c-8 0-11-4-11-11v-8c0-18-4-31-12-38-7-8-20-12-38-12h-39c-18 0-31 4-39 12s-11 22-11 42v19c0 19 13 32 40 38l40 8c14 2 29 5 43 9 15 4 28 10 40 17s22 17 30 31c7 14 11 31 11 51v24c0 31-9 55-26 72a97 97 0 0 1-72 26h-70c-30 0-54-9-72-26a96 96 0 0 1-26-72ZM449 48v386c0 9-4 13-12 13h-50c-8 0-12-4-12-13V48c0-9 4-13 12-13h50c8 0 12 4 12 13Z"/></svg>
